<svg width="52" height="66" viewBox="0 0 52 66" fill="none" xmlns="http://www.w3.org/2000/svg">
<path d="M20.8553 19.8C18.7719 19.8 16.7739 20.6403 15.3008 22.1361C13.8276 23.632 13 25.6607 13 27.7761C13 30.657 15.3043 33 18.1448 33H33.8553C36.6925 33 39 30.6603 39 27.7761C39 25.6607 38.1724 23.632 36.6992 22.1361C35.2261 20.6403 33.2281 19.8 31.1448 19.8H20.8553ZM17.875 27.7761C17.875 26.103 19.2075 24.75 20.8553 24.75H31.1448C32.7925 24.75 34.125 26.103 34.125 27.7761C34.125 27.8487 34.0966 27.9184 34.046 27.9698C33.9954 28.0211 33.9268 28.05 33.8553 28.05H18.1448C18.0732 28.05 18.0046 28.0211 17.954 27.9698C17.9034 27.9184 17.875 27.8487 17.875 27.7761ZM26 1.70969e-08C22.951 -0.000162628 20.0126 1.16013 17.7648 3.25191C15.517 5.34368 14.1231 8.21499 13.858 11.2992C9.67404 13.5424 6.17234 16.9026 3.73031 21.0174C1.28827 25.1323 -0.0015035 29.8458 1.31527e-06 34.65V55.275C1.31527e-06 56.6834 0.273209 58.0781 0.804024 59.3793C1.33484 60.6805 2.11287 61.8628 3.09369 62.8587C4.0745 63.8546 5.23891 64.6446 6.52041 65.1836C7.80191 65.7226 9.17542 66 10.5625 66H41.4375C42.8246 66 44.1981 65.7226 45.4796 65.1836C46.7611 64.6446 47.9255 63.8546 48.9063 62.8587C49.8871 61.8628 50.6652 60.6805 51.196 59.3793C51.7268 58.0781 52 56.6834 52 55.275V34.65C52.0015 29.8458 50.7117 25.1323 48.2697 21.0174C45.8277 16.9026 42.326 13.5424 38.142 11.2992C37.8769 8.21499 36.483 5.34368 34.2352 3.25191C31.9874 1.16013 29.049 -0.000162628 26 1.70969e-08ZM47.125 39.6H4.875V34.65C4.875 28.9611 7.10066 23.5052 11.0624 19.4826C15.0241 15.4599 20.3973 13.2 26 13.2C31.6027 13.2 36.9759 15.4599 40.9376 19.4826C44.8993 23.5052 47.125 28.9611 47.125 34.65V39.6ZM13 50.325C13 50.9814 13.2568 51.6109 13.7139 52.0751C14.1711 52.5392 14.791 52.8 15.4375 52.8C16.084 52.8 16.704 52.5392 17.1611 52.0751C17.6182 51.6109 17.875 50.9814 17.875 50.325V45.2562H47.125V55.275C47.125 56.8066 46.5258 58.2755 45.4592 59.3585C44.3926 60.4416 42.9459 61.05 41.4375 61.05H10.5625C9.05408 61.05 7.60745 60.4416 6.54083 59.3585C5.47422 58.2755 4.875 56.8066 4.875 55.275V45.2562H13V50.325ZM26 8.25C23.7315 8.25 21.5345 8.547 19.435 9.0981C20.0373 7.85159 20.9717 6.80153 22.1321 6.06713C23.2926 5.33273 24.6326 4.94343 26 4.94343C27.3674 4.94343 28.7074 5.33273 29.8679 6.06713C31.0283 6.80153 31.9627 7.85159 32.565 9.0981C30.4211 8.53307 28.2149 8.24807 26 8.25Z" fill="#2E48A8"/>
</svg>
