<svg width="109" height="27" viewBox="0 0 109 27" fill="none" xmlns="http://www.w3.org/2000/svg">
<path d="M9.708 14.912H4.452V26H0.924V0.799998H4.452V11.744H9.78L17.7 0.799998H21.552L12.552 13.004L21.984 26H17.88L9.708 14.912ZM78.7414 0.799998V26H75.2134V3.932H60.5974V26H57.0334V0.799998H78.7414Z" fill="#2E48A8"/>
<path d="M37.8578 26.288C35.3138 26.288 33.0218 25.736 30.9818 24.632C28.9418 23.504 27.3338 21.956 26.1578 19.988C25.0058 18.02 24.4298 15.824 24.4298 13.4C24.4298 10.976 25.0058 8.78 26.1578 6.812C27.3338 4.844 28.9418 3.308 30.9818 2.204C33.0218 1.076 35.3138 0.512 37.8578 0.512C40.3778 0.512 42.6578 1.076 44.6978 2.204C46.7378 3.308 48.3338 4.844 49.4858 6.812C50.6378 8.756 51.2138 10.952 51.2138 13.4C51.2138 15.848 50.6378 18.056 49.4858 20.024C48.3338 21.968 46.7378 23.504 44.6978 24.632C42.6578 25.736 40.3778 26.288 37.8578 26.288ZM37.8578 23.084C39.7058 23.084 41.3618 22.664 42.8258 21.824C44.3138 20.984 45.4778 19.832 46.3178 18.368C47.1818 16.88 47.6138 15.224 47.6138 13.4C47.6138 11.576 47.1818 9.932 46.3178 8.468C45.4778 6.98 44.3138 5.816 42.8258 4.976C41.3618 4.136 39.7058 3.716 37.8578 3.716C36.0098 3.716 34.3298 4.136 32.8178 4.976C31.3298 5.816 30.1538 6.98 29.2898 8.468C28.4498 9.932 28.0298 11.576 28.0298 13.4C28.0298 15.224 28.4498 16.88 29.2898 18.368C30.1538 19.832 31.3298 20.984 32.8178 21.824C34.3298 22.664 36.0098 23.084 37.8578 23.084ZM108.308 0.799998V26H104.78V3.932H90.1638V26H86.5998V0.799998H108.308Z" fill="#447EEC"/>
</svg>
