<svg width="48" height="66" viewBox="0 0 48 66" fill="none" xmlns="http://www.w3.org/2000/svg">
<path d="M6.55207 66C4.81589 66 3.15083 65.2179 1.92317 63.8258C0.69551 62.4337 0.00581847 60.5456 0.00581847 58.5769L0 12.3719C0 10.4032 0.689692 8.51506 1.91735 7.12295C3.14501 5.73084 4.81008 4.94876 6.54625 4.94876L8.7196 4.94547L8.72251 2.47438C8.72253 1.87645 8.9135 1.29875 9.26008 0.848119C9.60667 0.397489 10.0854 0.104415 10.6078 0.0230962L10.9046 2.06423e-06C11.4319 2.72795e-05 11.9414 0.216569 12.3387 0.609581C12.7361 1.00259 12.9946 1.54549 13.0663 2.13787L13.0867 2.47438V4.94547H21.815V2.47438C21.8152 1.87546 22.007 1.29695 22.3548 0.846171C22.7025 0.395395 23.1827 0.102953 23.7061 0.0230962L23.9971 2.06423e-06C24.5249 -0.000770632 25.0351 0.215411 25.4331 0.608496C25.8311 1.00158 26.0899 1.54493 26.1617 2.13787L26.1821 2.47438V4.94547H34.9017L34.9046 2.47438C34.9046 1.87645 35.0956 1.29875 35.4422 0.848119C35.7888 0.397489 36.2675 0.104415 36.7899 0.0230962L37.0896 2.06423e-06C37.6169 2.72795e-05 38.1264 0.216569 38.5237 0.609581C38.9211 1.00259 39.1796 1.54549 39.2513 2.13787L39.2717 2.47438V4.94547H41.4508C43.187 4.94547 44.8521 5.72754 46.0797 7.11965C47.3074 8.51176 47.9971 10.3999 47.9971 12.3686L48 48.6595C48 48.8575 47.9796 49.0554 47.9418 49.2402L47.8545 49.5503L47.7236 49.867L47.6654 49.9726C47.58 50.1326 47.4774 50.28 47.3599 50.4114L34.2558 65.2742C34.1788 65.3614 34.0962 65.4419 34.0085 65.515L34.2558 65.2742C34.1619 65.3803 34.0597 65.4763 33.9503 65.5612L33.6943 65.7328L33.3568 65.8878L33.0251 65.9736L32.8709 65.9934L32.7109 66H6.55207ZM41.4479 9.89753H6.51715C5.94349 9.9062 5.39591 10.1707 4.99296 10.6338C4.59001 11.0969 4.36411 11.7213 4.36417 12.3719L4.36998 58.5736C4.36998 59.9427 5.34756 61.0479 6.55207 61.0479H30.5259L30.5288 53.6116C30.5286 51.7306 31.1581 49.9198 32.2901 48.5449C33.4221 47.17 34.9721 46.3337 36.627 46.205L37.075 46.1885H43.6358V12.3719C43.6358 11.7157 43.4059 11.0863 42.9967 10.6223C42.5875 10.1582 42.0325 9.89753 41.4538 9.89753H41.4479ZM40.546 51.1372H37.075C36.5477 51.1372 36.0383 51.3538 35.6409 51.7468C35.2435 52.1398 34.985 52.6827 34.9133 53.2751L34.893 53.6116V57.5508L40.546 51.1372ZM10.9046 46.1885H22.5366C23.0894 46.1886 23.6216 46.4268 24.0256 46.8548C24.4296 47.2828 24.6752 47.8687 24.7129 48.4942C24.7506 49.1196 24.5775 49.738 24.2286 50.2243C23.8797 50.7107 23.381 51.0287 22.8333 51.1141L22.5366 51.1372H10.9046C10.3517 51.137 9.81954 50.8989 9.41557 50.4709C9.01159 50.0429 8.76594 49.457 8.72826 48.8315C8.69057 48.206 8.86367 47.5877 9.21256 47.1013C9.56145 46.615 10.0601 46.297 10.6078 46.2116L10.9046 46.1885ZM10.9046 32.9918H37.0838C37.6366 32.9919 38.1688 33.2301 38.5728 33.6581C38.9768 34.0861 39.2224 34.672 39.2601 35.2975C39.2978 35.9229 39.1247 36.5413 38.7758 37.0276C38.4269 37.514 37.9282 37.832 37.3805 37.9174L37.0838 37.9405H10.9046C10.3517 37.9403 9.81954 37.7022 9.41557 37.2742C9.01159 36.8462 8.76594 36.2603 8.72826 35.6348C8.69057 35.0093 8.86367 34.391 9.21256 33.9046C9.56145 33.4183 10.0601 33.1003 10.6078 33.0149L10.9046 32.9918ZM10.9046 19.7951H37.0838C37.6366 19.7952 38.1688 20.0334 38.5728 20.4614C38.9768 20.8894 39.2224 21.4753 39.2601 22.1008C39.2978 22.7262 39.1247 23.3446 38.7758 23.8309C38.4269 24.3173 37.9282 24.6353 37.3805 24.7207L37.0838 24.7438H10.9046C10.3517 24.7436 9.81954 24.5055 9.41557 24.0775C9.01159 23.6495 8.76594 23.0636 8.72826 22.4381C8.69057 21.8126 8.86367 21.1943 9.21256 20.7079C9.56145 20.2216 10.0601 19.9036 10.6078 19.8181L10.9046 19.7951Z" fill="#2E48A8"/>
</svg>
