<svg width="30" height="28" viewBox="0 0 30 28" fill="none" xmlns="http://www.w3.org/2000/svg">
<path d="M29.2363 1.00332C28.9288 0.745203 28.5566 0.574445 28.159 0.509197C27.7615 0.443949 27.3535 0.48665 26.9785 0.632762L1.40932 10.583C0.960844 10.7523 0.580966 11.063 0.328181 11.4672C0.0753968 11.8714 -0.0362756 12.3468 0.0103589 12.8201C0.0519644 13.2932 0.247234 13.7402 0.566887 14.094C0.886539 14.4478 1.31335 14.6895 1.78331 14.7827L8.27949 16.059V24.1016C8.27926 24.5366 8.40948 24.962 8.65362 25.3236C8.89776 25.6853 9.24482 25.9669 9.65076 26.1328C9.91942 26.2399 10.2061 26.2958 10.4957 26.2975C10.7867 26.2985 11.0751 26.242 11.3439 26.1312C11.6126 26.0204 11.8564 25.8577 12.0609 25.6524L15.6622 22.0978L21.1057 26.8464C21.5075 27.1976 22.0242 27.3927 22.56 27.3954C22.7957 27.4002 23.0302 27.363 23.2526 27.2856C23.6181 27.171 23.9471 26.9639 24.207 26.6847C24.467 26.4054 24.6488 26.0638 24.7347 25.6936L29.9427 3.15806C30.0337 2.7692 30.016 2.36311 29.8916 1.98345C29.7671 1.6038 29.5406 1.26494 29.2363 1.00332ZM9.12441 13.9866L2.22654 12.6279L21.5627 5.09321L9.12441 13.9866ZM10.4957 24.1016V17.5962L13.9862 20.643L10.4957 24.1016ZM22.5739 25.1995L11.1605 15.2493L27.6018 3.48745L22.5739 25.1995Z" fill="#2E48A8"/>
</svg>
