<svg width="30" height="30" viewBox="0 0 30 30" fill="none" xmlns="http://www.w3.org/2000/svg">
<path d="M25.6281 4.34689C24.246 2.96357 22.5998 1.86678 20.7854 1.12048C18.971 0.374175 17.0248 -0.00669216 15.0603 8.8982e-05C6.82914 8.8982e-05 0.120603 6.64726 0.120603 14.8031C0.120603 17.4172 0.81407 19.9566 2.11055 22.1972L0 29.875L7.91457 27.8137C10.1005 28.9937 12.5578 29.6211 15.0603 29.6211C23.2915 29.6211 30 22.9739 30 14.8181C30 10.8596 28.4472 7.1402 25.6281 4.34689ZM15.0603 27.1116C12.8291 27.1116 10.6432 26.5141 8.72864 25.3938L8.27638 25.1249L3.57286 26.3498L4.82412 21.8088L4.52261 21.3457C3.28303 19.3844 2.62483 17.1173 2.62312 14.8031C2.62312 8.02151 8.201 2.49465 15.0452 2.49465C18.3618 2.49465 21.4824 3.77927 23.8191 6.10952C24.9761 7.25068 25.893 8.60805 26.5167 10.1029C27.1403 11.5978 27.4583 13.2005 27.4523 14.8181C27.4824 21.5997 21.9045 27.1116 15.0603 27.1116ZM21.8744 17.9101C21.4975 17.7309 19.6583 16.8346 19.3266 16.7002C18.9799 16.5807 18.7387 16.5209 18.4824 16.8794C18.2261 17.2529 17.5176 18.0894 17.3065 18.3284C17.0955 18.5823 16.8693 18.6122 16.4925 18.418C16.1156 18.2387 14.9095 17.8354 13.4925 16.5807C12.3769 15.5948 11.6382 14.3849 11.4121 14.0114C11.201 13.638 11.3819 13.4438 11.5779 13.2496C11.7437 13.0853 11.9548 12.8164 12.1357 12.6073C12.3166 12.3982 12.392 12.2339 12.5126 11.9949C12.6332 11.7409 12.5729 11.5318 12.4824 11.3526C12.392 11.1733 11.6382 9.35095 11.3367 8.60407C11.0352 7.88707 10.7186 7.9767 10.4925 7.96176H9.76884C9.51256 7.96176 9.1206 8.05139 8.77387 8.42482C8.44221 8.79826 7.47739 9.69451 7.47739 11.5169C7.47739 13.3393 8.8191 15.1019 9 15.3409C9.1809 15.5948 11.6382 19.3292 15.3769 20.9275C16.2663 21.3159 16.9598 21.5399 17.5025 21.7042C18.392 21.988 19.206 21.9432 19.8543 21.8536C20.5779 21.749 22.0703 20.9574 22.3719 20.091C22.6884 19.2246 22.6884 18.4927 22.5829 18.3284C22.4774 18.1641 22.2513 18.0894 21.8744 17.9101Z" fill="#2E48A8"/>
</svg>
